# xmcd
#
# Track frame offsets: 
#        150
#        17974
#        30814
#        46328
#        65696
#        80615
#        91597
#        108363
#        122575
#        137986
#        151498
#        162293
#
# Disc length: 2402 seconds
#
# Revision: 0
# Processed by: cddbd v1.5.2PL0 Copyright (c) Steve Scherf et al.
# Submitted via: ExactAudioCopyFreeDBPlugin 1.0
#
DISCID=9109600c
DTITLE=Shane Dwight - This House
DYEAR=2014
DGENRE=Blues
TTITLE0=This House
TTITLE1=We Can Do This
TTITLE2=Fool
TTITLE3=Sing for Me (Search for Sierra)
TTITLE4=It's Gonna Be Beautiful
TTITLE5=Devil's Noose
TTITLE6=Stepping Stone
TTITLE7=Never Before
TTITLE8=I'm a Bad Man
TTITLE9=Losing Ground
TTITLE10=Bad for You
TTITLE11=Crazy Today
EXTD=
EXTT0=
EXTT1=
EXTT2=
EXTT3=
EXTT4=
EXTT5=
EXTT6=
EXTT7=
EXTT8=
EXTT9=
EXTT10=
EXTT11=
PLAYORDER=
